HIERARCHY
ROOT hip
{
  OFFSET 0 0 0
  CHANNELS 6 Xposition Yposition Zposition Zrotation Yrotation Xrotation
  JOINT abdomen
  {
    OFFSET 0 20.6881 -0.73152
    CHANNELS 3 Zrotation Xrotation Yrotation
    JOINT chest
    {
      OFFSET 0 11.7043 -0.48768
      CHANNELS 3 Zrotation Xrotation Yrotation
      JOINT neck
      {
        OFFSET 0 22.1894 -2.19456
        CHANNELS 3 Zrotation Xrotation Yrotation
        JOINT head
        {
          OFFSET -0.24384 7.07133 1.2192
          CHANNELS 3 Zrotation Xrotation Yrotation
          JOINT leftEye
          {
            OFFSET 4.14528 8.04674 8.04672
            CHANNELS 3 Zrotation Xrotation Yrotation
            End Site
            {
              OFFSET 1 0 0
            }
          }
          JOINT rightEye
          {
            OFFSET -3.6576 8.04674 8.04672
            CHANNELS 3 Zrotation Xrotation Yrotation
            End Site
            {
              OFFSET 1 0 0
            }
          }
        }
      }
      JOINT rCollar
      {
        OFFSET -2.68224 19.2634 -4.8768
        CHANNELS 3 Zrotation Xrotation Yrotation
        JOINT rShldr
        {
          OFFSET -8.77824 -1.95073 1.46304
          CHANNELS 3 Zrotation Xrotation Yrotation
          JOINT rForeArm
          {
            OFFSET -28.1742 -1.7115 0.48768
            CHANNELS 3 Zrotation Xrotation Yrotation
            JOINT rHand
            {
              OFFSET -22.5879 0.773209 7.07136
              CHANNELS 3 Zrotation Xrotation Yrotation
              JOINT rThumb1
              {
                OFFSET -1.2192 -0.487915 3.41376
                CHANNELS 3 Zrotation Xrotation Yrotation
                JOINT rThumb2
                {
                  OFFSET -3.37035 -0.52449 3.41376
                  CHANNELS 3 Zrotation Xrotation Yrotation
                  End Site
                  {
                    OFFSET -1.78271 -1.18214 1.43049
                  }
                }
              }
              JOINT rIndex1
              {
                OFFSET -7.75947 0.938293 5.60832
                CHANNELS 3 Zrotation Xrotation Yrotation
                JOINT rIndex2
                {
                  OFFSET -2.54057 -0.884171 1.56538
                  CHANNELS 3 Zrotation Xrotation Yrotation
                  End Site
                  {
                    OFFSET -1.62519 -0.234802 1.16502
                  }
                }
              }
              JOINT rMid1
              {
                OFFSET -8.24714 1.18213 3.41376
                CHANNELS 3 Zrotation Xrotation Yrotation
                JOINT rMid2
                {
                  OFFSET -3.10165 -0.590103 1.0647
                  CHANNELS 3 Zrotation Xrotation Yrotation
                  End Site
                  {
                    OFFSET -2.48547 -0.328903 0.83742
                  }
                }
              }
              JOINT rRing1
              {
                OFFSET -8.82822 0.546677 1.51678
                CHANNELS 3 Zrotation Xrotation Yrotation
                JOINT rRing2
                {
                  OFFSET -2.60934 -0.819778 -0.0198488
                  CHANNELS 3 Zrotation Xrotation Yrotation
                  End Site
                  {
                    OFFSET -2.33842 -0.294052 0.168128
                  }
                }
              }
              JOINT rPinky1
              {
                OFFSET -8.27202 -0.0477905 -0.4584
                CHANNELS 3 Zrotation Xrotation Yrotation
                JOINT rPinky2
                {
                  OFFSET -1.82734 -0.647385 -0.700984
                  CHANNELS 3 Zrotation Xrotation Yrotation
                  End Site
                  {
                    OFFSET -1.69225 -0.51767 -0.607171
                  }
                }
              }
            }
          }
        }
      }
      JOINT lCollar
      {
        OFFSET 2.68224 19.2634 -4.8768
        CHANNELS 3 Zrotation Xrotation Yrotation
        JOINT lShldr
        {
          OFFSET 8.77824 -1.95073 1.46304
          CHANNELS 3 Zrotation Xrotation Yrotation
          JOINT lForeArm
          {
            OFFSET 28.1742 -1.7115 0.48768
            CHANNELS 3 Zrotation Xrotation Yrotation
            JOINT lHand
            {
              OFFSET 22.5879 0.773209 7.07136
              CHANNELS 3 Zrotation Xrotation Yrotation
              JOINT lThumb1
              {
                OFFSET 1.2192 -0.487915 3.41376
                CHANNELS 3 Zrotation Xrotation Yrotation
                JOINT lThumb2
                {
                  OFFSET 3.37035 -0.52449 3.41376
                  CHANNELS 3 Zrotation Xrotation Yrotation
                  End Site
                  {
                    OFFSET 1.78271 -1.18214 1.43049
                  }
                }
              }
              JOINT lIndex1
              {
                OFFSET 7.75947 0.938293 5.60832
                CHANNELS 3 Zrotation Xrotation Yrotation
                JOINT lIndex2
                {
                  OFFSET 2.54057 -0.884171 1.56538
                  CHANNELS 3 Zrotation Xrotation Yrotation
                  End Site
                  {
                    OFFSET 1.62519 -0.234802 1.16502
                  }
                }
              }
              JOINT lMid1
              {
                OFFSET 8.24714 1.18213 3.41376
                CHANNELS 3 Zrotation Xrotation Yrotation
                JOINT lMid2
                {
                  OFFSET 3.10165 -0.590103 1.0647
                  CHANNELS 3 Zrotation Xrotation Yrotation
                  End Site
                  {
                    OFFSET 2.48547 -0.328903 0.83742
                  }
                }
              }
              JOINT lRing1
              {
                OFFSET 8.82822 0.546677 1.51678
                CHANNELS 3 Zrotation Xrotation Yrotation
                JOINT lRing2
                {
                  OFFSET 2.60934 -0.819778 -0.0198488
                  CHANNELS 3 Zrotation Xrotation Yrotation
                  End Site
                  {
                    OFFSET 2.33842 -0.294052 0.168128
                  }
                }
              }
              JOINT lPinky1
              {
                OFFSET 8.27202 -0.0477905 -0.4584
                CHANNELS 3 Zrotation Xrotation Yrotation
                JOINT lPinky2
                {
                  OFFSET 1.82734 -0.647385 -0.700984
                  CHANNELS 3 Zrotation Xrotation Yrotation
                  End Site
                  {
                    OFFSET 1.69225 -0.51767 -0.607171
                  }
                }
              }
            }
          }
        }
      }
    }
  }
  JOINT rButtock
  {
    OFFSET -8.77824 4.35084 1.2192
    CHANNELS 3 Zrotation Xrotation Yrotation
    JOINT rThigh
    {
      OFFSET 0 -1.70687 -2.19456
      CHANNELS 3 Zrotation Xrotation Yrotation
      JOINT rShin
      {
        OFFSET 0 -36.8199 0.73152
        CHANNELS 3 Zrotation Xrotation Yrotation
        JOINT rFoot
        {
          OFFSET 0.73152 -45.1104 -5.12064
          CHANNELS 3 Zrotation Xrotation Yrotation
          End Site
          {
            OFFSET -1.1221 -3.69964 12.103
          }
        }
      }
    }
  }
  JOINT lButtock
  {
    OFFSET 8.77824 4.35084 1.2192
    CHANNELS 3 Zrotation Xrotation Yrotation
    JOINT lThigh
    {
      OFFSET 0 -1.70687 -2.19456
      CHANNELS 3 Zrotation Xrotation Yrotation
      JOINT lShin
      {
        OFFSET 0 -36.8199 0.73152
        CHANNELS 3 Zrotation Xrotation Yrotation
        JOINT lFoot
        {
          OFFSET -0.73152 -45.1104 -5.12064
          CHANNELS 3 Zrotation Xrotation Yrotation
          End Site
          {
            OFFSET 1.1221 -3.69964 12.103
          }
        }
      }
    }
  }
}
MOTION
Frames:	6
Frame Time:	0.00833333
54.2779 84.3643 34.3386 40.2716 -87.7369 -34.0919 0.63318 5.07036 -2.7372 3.17381 0.55835 -0.799333 -2.94382 -0.659103 2.41563 14.4765 -20.2236 8.1341 -0.0 0.0 0.0 -0.0 0.0 0.0 -7.01376e-14 1.17764e-12 -5.98489e-14 83.1057 -6.60339 -2.08249 -7.78604 -2.90146 13.7093 -1.34169 30.9906 4.84187 4.07415e-09 1.30782e-09 -3.65606e-09 6.94166e-09 2.27889e-09 -6.40683e-09 4.07415e-09 1.30782e-09 -3.65606e-09 7.73091 5.47488 0.417314 4.07415e-09 1.30782e-09 -3.65606e-09 2.90554 0.965183 0.102902 4.07415e-09 1.30782e-09 -3.65606e-09 10.2786 0.731801 0.0259123 4.07414e-09 1.30783e-09 -3.65606e-09 2.22167 -0.733487 -0.20892 -7.02649e-14 1.17763e-12 -6.00974e-14 -63.9426 38.7367 -35.4848 17.3714 -10.0291 -32.6205 0.442878 18.6889 -2.72301 1.64756e-09 1.67315e-09 5.69997e-10 2.85794e-09 2.90024e-09 9.58428e-10 1.64756e-09 1.67315e-09 5.70005e-10 -7.73091 5.47488 -0.417314 1.64756e-09 1.67315e-09 5.69992e-10 -2.90554 0.965183 -0.102902 1.64755e-09 1.67315e-09 5.69993e-10 -10.2786 0.731801 -0.0259123 1.64757e-09 1.67315e-09 5.6999e-10 -2.22167 -0.733487 0.20892 -2.03217e-16 0.0 -3.88251e-19 -10.3224 -38.1854 -9.25838 -0.133006 23.7837 0.304599 -1.71321 1.68543 -19.1693 2.03217e-16 0.0 3.88251e-19 -3.98769 -5.96243 -3.4701 -0.00285466 14.5009 -0.410823 0.031027 -10.7024 -1.97007
53.6587 84.3136 34.3266 41.6173 -87.554 -35.0637 0.783489 5.04873 -2.93148 3.32628 0.626899 -0.855375 -2.80676 -0.628566 2.57265 14.2755 -20.3504 8.39017 -0.0 0.0 0.0 -0.0 0.0 0.0 -6.43301e-14 6.98434e-13 -4.95471e-14 83.1626 -6.01073 -2.52621 -7.9509 -2.98613 14.0111 -1.21693 29.6697 4.59228 4.48256e-09 1.57265e-09 -4.84061e-09 7.62304e-09 2.73629e-09 -8.45762e-09 4.48256e-09 1.57266e-09 -4.84061e-09 7.73091 5.47488 0.417314 4.48256e-09 1.57266e-09 -4.84061e-09 2.90554 0.965183 0.102902 4.48256e-09 1.57266e-09 -4.84061e-09 10.2786 0.731801 0.0259123 4.48256e-09 1.57266e-09 -4.8406e-09 2.22167 -0.733487 -0.20892 -6.44865e-14 6.98425e-13 -4.97956e-14 -63.9584 38.9198 -35.3866 17.9821 -10.6674 -33.98 0.355186 16.7101 -2.4181 1.9992e-09 2.11015e-09 1.32788e-10 3.45974e-09 3.65561e-09 1.9869e-10 1.9992e-09 2.11015e-09 1.32795e-10 -7.73091 5.47488 -0.417314 1.9992e-09 2.11015e-09 1.32782e-10 -2.90554 0.965183 -0.102902 1.99919e-09 2.11015e-09 1.32783e-10 -10.2786 0.731801 -0.0259123 1.9992e-09 2.11015e-09 1.32782e-10 -2.22167 -0.733487 0.20892 -2.03217e-16 0.0 -3.88251e-19 -10.0879 -38.1328 -8.38676 -0.112253 21.0821 0.249613 -1.60857 1.73515 -18.9723 2.03217e-16 0.0 3.88251e-19 -3.96275 -5.69112 -3.36927 0.0022074 14.1261 -0.382372 -0.0428714 -10.8675 -2.21023
53.0359 84.2539 34.3047 42.5632 -87.388 -35.6395 0.951183 5.02286 -3.11973 3.44844 0.724839 -0.911914 -2.64785 -0.628927 2.71183 14.0795 -20.4377 8.60008 -0.0 0.0 0.0 -0.0 0.0 0.0 -2.15405e-14 3.33441e-13 -4.777e-14 83.2325 -5.59462 -2.8889 -8.07929 -3.05276 14.2465 -1.1215 28.5716 4.39128 4.60655e-09 1.88751e-09 -6.36909e-09 7.80798e-09 3.27706e-09 -1.10966e-08 4.60655e-09 1.88752e-09 -6.36909e-09 7.73091 5.47488 0.417314 4.60655e-09 1.88752e-09 -6.36909e-09 2.90554 0.965183 0.102902 4.60655e-09 1.88752e-09 -6.36909e-09 10.2786 0.731801 0.0259123 4.60654e-09 1.88752e-09 -6.36908e-09 2.22167 -0.733487 -0.20892 -2.16965e-14 3.33431e-13 -4.80162e-14 -63.969 39.0483 -35.2744 18.566 -11.3083 -35.2979 0.286503 14.9777 -2.1563 2.08883e-09 2.51963e-09 -5.78571e-10 3.60784e-09 4.36217e-09 -1.03069e-09 2.08883e-09 2.51964e-09 -5.78565e-10 -7.73091 5.47488 -0.417314 2.08883e-09 2.51963e-09 -5.78577e-10 -2.90554 0.965183 -0.102902 2.08882e-09 2.51964e-09 -5.78575e-10 -10.2786 0.731801 -0.0259123 2.08883e-09 2.51963e-09 -5.78577e-10 -2.22167 -0.733487 0.20892 -2.03217e-16 0.0 -3.88251e-19 -9.75066 -38.0578 -7.13924 -0.0915666 18.545 0.204242 -1.68908 1.32994 -19.1746 2.03217e-16 0.0 3.88251e-19 -3.90493 -5.43416 -3.26621 0.00714965 13.7892 -0.351693 -0.12318 -11.0469 -2.46563
52.407 84.1855 34.2721 43.1809 -87.2426 -35.902 1.12775 4.98885 -3.30335 3.54831 0.84387 -0.969088 -2.47567 -0.647411 2.83798 13.8959 -20.4899 8.77673 -0.0 0.0 0.0 -0.0 0.0 0.0 4.68848e-14 -3.36862e-14 -4.93887e-14 83.3043 -5.37236 -3.18899 -8.17961 -3.10587 14.4299 -1.04579 27.6947 4.23197 4.51786e-09 2.23784e-09 -8.1762e-09 7.62158e-09 3.87683e-09 -1.42118e-08 4.51786e-09 2.23785e-09 -8.17619e-09 7.73091 5.47488 0.417314 4.51786e-09 2.23785e-09 -8.17619e-09 2.90554 0.965183 0.102902 4.51787e-09 2.23785e-09 -8.17619e-09 10.2786 0.731801 0.0259123 4.51786e-09 2.23785e-09 -8.17619e-09 2.22167 -0.733487 -0.20892 4.67459e-14 -3.36954e-14 -4.96309e-14 -64.0024 39.1228 -35.1205 19.1255 -11.9527 -36.586 0.227578 13.4312 -1.92434 2.01637e-09 2.92937e-09 -1.52182e-09 3.47437e-09 5.06823e-09 -2.65808e-09 2.01638e-09 2.92937e-09 -1.52181e-09 -7.73091 5.47488 -0.417314 2.01638e-09 2.92937e-09 -1.52182e-09 -2.90554 0.965183 -0.102902 2.01637e-09 2.92937e-09 -1.52182e-09 -10.2786 0.731801 -0.0259123 2.01637e-09 2.92937e-09 -1.52183e-09 -2.22167 -0.733487 0.20892 -2.03217e-16 0.0 -3.88251e-19 -9.33392 -37.9439 -5.59353 -0.070462 16.127 0.164975 -1.91155 0.603518 -19.6585 2.03217e-16 0.0 3.88251e-19 -3.82146 -5.18996 -3.15733 0.0122405 13.4778 -0.318235 -0.210586 -11.2351 -2.73843
51.7715 84.1046 34.2322 43.6024 -87.1121 -35.9872 1.30164 4.97418 -3.47598 3.62347 0.963082 -1.02338 -2.30662 -0.678699 2.95465 13.7173 -20.5317 8.93453 -0.0 0.0 0.0 -0.0 0.0 0.0 1.11582e-13 -3.21556e-13 -5.28259e-14 83.3659 -5.31222 -3.43012 -8.24845 -3.14286 14.5555 -0.9905 27.0473 4.11512 4.42243e-09 2.53664e-09 -9.80403e-09 7.42717e-09 4.38811e-09 -1.70178e-08 4.42243e-09 2.53664e-09 -9.80402e-09 7.73091 5.47488 0.417314 4.42243e-09 2.53664e-09 -9.80402e-09 2.90554 0.965183 0.102902 4.42243e-09 2.53664e-09 -9.80402e-09 10.2786 0.731801 0.0259123 4.42242e-09 2.53664e-09 -9.80402e-09 2.22167 -0.733487 -0.20892 1.11461e-13 -3.21565e-13 -5.30674e-14 -64.0607 39.1569 -34.9336 19.6488 -12.5798 -37.8235 0.183108 12.1488 -1.73369 1.9747e-09 3.28007e-09 -2.41193e-09 3.39493e-09 5.67234e-09 -4.19357e-09 1.9747e-09 3.28008e-09 -2.41192e-09 -7.73091 5.47488 -0.417314 1.9747e-09 3.28008e-09 -2.41193e-09 -2.90554 0.965183 -0.102902 1.97469e-09 3.28008e-09 -2.41193e-09 -10.2786 0.731801 -0.0259123 1.9747e-09 3.28008e-09 -2.41193e-09 -2.22167 -0.733487 0.20892 -2.03217e-16 0.0 -3.88251e-19 -8.92895 -37.8493 -4.13051 -0.0528951 14.0801 0.133955 -2.19171 -0.197929 -20.204 2.03217e-16 0.0 3.88251e-19 -3.73878 -4.95745 -3.05196 0.0169961 13.2354 -0.288324 -0.295314 -11.4382 -2.99533
51.1245 84.0084 34.186 44.0534 -87.001 -36.13 1.46161 5.00631 -3.6313 3.67137 1.06157 -1.07127 -2.15718 -0.717472 3.06544 13.5368 -20.5872 9.08806 -0.0 0.0 0.0 -0.0 0.0 0.0 1.43188e-13 -4.48777e-13 -5.65045e-14 83.4066 -5.3825 -3.61581 -8.28233 -3.16109 14.6174 -0.957321 26.6374 4.04227 4.52616e-09 2.6969e-09 -1.07947e-08 7.58811e-09 4.66339e-09 -1.87292e-08 4.52616e-09 2.6969e-09 -1.07947e-08 7.73091 5.47488 0.417314 4.52616e-09 2.6969e-09 -1.07947e-08 2.90554 0.965183 0.102902 4.52617e-09 2.6969e-09 -1.07947e-08 10.2786 0.731801 0.0259123 4.52616e-09 2.6969e-09 -1.07947e-08 2.22167 -0.733487 -0.20892 1.43071e-13 -4.48786e-13 -5.6753e-14 -64.146 39.1643 -34.7225 20.1267 -13.1719 -38.9884 0.156606 11.2085 -1.59587 2.15667e-09 3.51246e-09 -2.96386e-09 3.70516e-09 6.07302e-09 -5.14723e-09 2.15668e-09 3.51247e-09 -2.96385e-09 -7.73091 5.47488 -0.417314 2.15668e-09 3.51247e-09 -2.96386e-09 -2.90554 0.965183 -0.102902 2.15667e-09 3.51247e-09 -2.96386e-09 -10.2786 0.731801 -0.0259123 2.15667e-09 3.51247e-09 -2.96387e-09 -2.22167 -0.733487 0.20892 -2.03217e-16 0.0 -3.88251e-19 -8.61482 -37.8512 -3.12431 -0.0421732 12.6565 0.113215 -2.42712 -0.834557 -20.5869 2.03217e-16 0.0 3.88251e-19 -3.68322 -4.73556 -2.9594 0.0207439 13.1056 -0.268243 -0.3672 -11.6625 -3.20295
